<?xml version="1.0" encoding="utf-8"?>
<!-- Generator: Adobe Illustrator 16.0.3, SVG Export Plug-In . SVG Version: 6.00 Build 0)  -->
<!DOCTYPE svg PUBLIC "-//W3C//DTD SVG 1.1//EN" "http://www.w3.org/Graphics/SVG/1.1/DTD/svg11.dtd">
<svg version="1.1" id="レイヤー_1" xmlns="http://www.w3.org/2000/svg" xmlns:xlink="http://www.w3.org/1999/xlink" x="0px"
	 y="0px" width="95.445px" height="60.03px" viewBox="9.447 27.667 95.445 60.03"
	 enable-background="new 9.447 27.667 95.445 60.03" xml:space="preserve">
<path fill="#4ADDCE" d="M103.704,45.687c-2.361-4.958-7.808-7.728-14.162-7.883c-1.088-9.377-19.487-8.395-40.021-8.395
	c-21.17,0-40.074-0.971-40.074,9.292c0,7.679,4.552,27.271,20.463,36.652c-4.411,1.312-7.105,3.06-7.105,4.979
	c0,4.066,12.091,7.365,27.006,7.365c14.916,0,27.005-3.299,27.005-7.365c0-1.952-2.791-3.727-7.338-5.044
	c1.857-1.146,3.559-2.442,5.117-3.849c4.93,1.22,10.916,0.605,16.605-2.104C101.9,64.238,107.499,53.65,103.704,45.687
	 M89.553,65.875c-3.85,1.835-7.877,2.402-11.357,1.854c7.146-8.41,10.35-19.058,11.175-25.753c4.36,0.384,8.026,2.444,9.687,5.928
	C101.939,53.954,97.686,62.001,89.553,65.875"/>
<path fill="#3AAFA1" d="M87.854,34.636c0,3.849-17.162,6.969-38.332,6.969c-21.17,0-38.332-3.121-38.332-6.969
	c0-3.848,17.161-6.969,38.331-6.969C70.691,27.667,87.854,30.787,87.854,34.636"/>
</svg>
