<?xml version="1.0" encoding="utf-8"?>
<!-- Generator: Adobe Illustrator 16.0.3, SVG Export Plug-In . SVG Version: 6.00 Build 0)  -->
<!DOCTYPE svg PUBLIC "-//W3C//DTD SVG 1.1//EN" "http://www.w3.org/Graphics/SVG/1.1/DTD/svg11.dtd">
<svg version="1.1" id="レイヤー_1" xmlns="http://www.w3.org/2000/svg" xmlns:xlink="http://www.w3.org/1999/xlink" x="0px"
	 y="0px" width="95.445px" height="60.029px" viewBox="0 0 95.445 60.029" enable-background="new 0 0 95.445 60.029"
	 xml:space="preserve">
<path fill="#5D92E8" d="M94.258,18.02c-2.361-4.958-7.808-7.728-14.162-7.883C79.008,0.76,60.609,1.742,40.075,1.742
	c-21.17,0-40.074-0.972-40.074,9.292c0,7.679,4.552,27.271,20.463,36.651c-4.411,1.313-7.104,3.061-7.104,4.979
	c0,4.065,12.091,7.364,27.006,7.364c14.916,0,27.005-3.299,27.005-7.364c0-1.952-2.791-3.728-7.338-5.044
	c1.856-1.146,3.559-2.442,5.117-3.85c4.93,1.221,10.916,0.605,16.604-2.104C92.454,36.571,98.052,25.983,94.258,18.02
	 M80.107,38.208c-3.851,1.835-7.878,2.401-11.357,1.854c7.146-8.41,10.35-19.058,11.175-25.753c4.36,0.384,8.026,2.444,9.688,5.928
	C92.493,26.287,88.24,34.334,80.107,38.208"/>
<path fill="#3160BC" d="M78.407,6.969c0,3.849-17.162,6.969-38.332,6.969S1.743,10.817,1.743,6.969S18.904,0,40.074,0
	S78.407,3.12,78.407,6.969"/>
</svg>
