<?xml version="1.0" encoding="utf-8"?>
<!-- Generator: Adobe Illustrator 22.0.1, SVG Export Plug-In . SVG Version: 6.00 Build 0)  -->
<svg version="1.1" id="レイヤー_1" xmlns="http://www.w3.org/2000/svg" xmlns:xlink="http://www.w3.org/1999/xlink" x="0px"
	 y="0px" viewBox="0 0 65.2 88.7" style="enable-background:new 0 0 65.2 88.7;" xml:space="preserve">
<style type="text/css">
	.st0{fill:none;stroke:#89604C;stroke-width:2;stroke-miterlimit:10;}
	.st1{fill:#FF45A2;}
	.st2{fill:#89604C;}
	.st3{fill:#8E2061;}
</style>
<line class="st0" x1="23.5" y1="61.5" x2="27.5" y2="88.6"/>
<line class="st0" x1="41.7" y1="62.8" x2="37.7" y2="88.6"/>
<path class="st1" d="M65.2,30.8c0,28.6-24,33.7-24,33.7H24c0,0-24.8-6-24-33.7C0.6,12.8,14.4,0,32.4,0C50.4,0,65.2,12.8,65.2,30.8"
	/>
<path class="st2" d="M40,88.7H25.2c-0.9,0-1.7-0.8-1.7-1.7V72.2c0-0.9,0.8-1.7,1.7-1.7H40c0.9,0,1.7,0.8,1.7,1.7V87
	C41.7,88,41,88.7,40,88.7"/>
<path class="st3" d="M25.6,0.7c-4.9,6.4-8.2,19.3-8.2,34.2c0,15.8,3.8,23.9,9.1,29.7h11.9c5.4-5.9,9.1-13.9,9.1-29.7
	c0-14.9-3.3-27.8-8.2-34.2C37.1,0.2,34.8,0,32.4,0C30,0,27.8,0.2,25.6,0.7"/>
</svg>
