<?xml version="1.0" encoding="utf-8"?>
<!-- Generator: Adobe Illustrator 22.0.1, SVG Export Plug-In . SVG Version: 6.00 Build 0)  -->
<svg version="1.1" id="レイヤー_1" xmlns="http://www.w3.org/2000/svg" xmlns:xlink="http://www.w3.org/1999/xlink" x="0px"
	 y="0px" viewBox="0 0 95.4 60" style="enable-background:new 0 0 95.4 60;" xml:space="preserve">
<style type="text/css">
	.st0{fill:#FF45A2;}
	.st1{fill:#8E2061;}
</style>
<path class="st0" d="M94.3,18c-2.4-5-7.8-7.7-14.2-7.9c-1.1-9.4-19.5-8.4-40-8.4C18.9,1.7,0,0.8,0,11c0,7.7,4.6,27.3,20.5,36.7
	c-4.4,1.3-7.1,3.1-7.1,5c0,4.1,12.1,7.4,27,7.4c14.9,0,27-3.3,27-7.4c0-2-2.8-3.7-7.3-5c1.9-1.1,3.6-2.4,5.1-3.8
	c4.9,1.2,10.9,0.6,16.6-2.1C92.5,36.6,98.1,26,94.3,18 M80.1,38.2c-3.8,1.8-7.9,2.4-11.4,1.9c7.1-8.4,10.3-19.1,11.2-25.8
	c4.4,0.4,8,2.4,9.7,5.9C92.5,26.3,88.2,34.3,80.1,38.2"/>
<path class="st1" d="M78.4,7c0,3.8-17.2,7-38.3,7S1.7,10.8,1.7,7s17.2-7,38.3-7C61.2,0,78.4,3.1,78.4,7"/>
</svg>
