<?xml version="1.0" encoding="utf-8"?>
<!-- Generator: Adobe Illustrator 22.0.1, SVG Export Plug-In . SVG Version: 6.00 Build 0)  -->
<svg version="1.1" id="レイヤー_1" xmlns="http://www.w3.org/2000/svg" xmlns:xlink="http://www.w3.org/1999/xlink" x="0px"
	 y="0px" viewBox="0 0 90 93.9" style="enable-background:new 0 0 90 93.9;" xml:space="preserve">
<style type="text/css">
	.st0{fill:#5D92E8;}
	.st1{fill:#8E2061;}
	.st2{fill:#FF45A2;}
</style>
<polygon class="st0" points="44.5,45.3 29.8,93.9 59.1,93.9 "/>
<path class="st1" d="M25.3,45.6c0,7-5.7,12.6-12.6,12.6C5.7,58.3,0,52.6,0,45.6S5.7,33,12.6,33C19.6,33,25.3,38.7,25.3,45.6"/>
<path class="st0" d="M27.2,67.7c0,3.4-2.8,6.2-6.1,6.2c-3.4,0-6.2-2.8-6.2-6.2s2.8-6.2,6.2-6.2C24.4,61.5,27.2,64.3,27.2,67.7"/>
<path class="st2" d="M73.8,67.7c0,3.4-2.8,6.2-6.1,6.2s-6.2-2.8-6.2-6.2s2.8-6.2,6.2-6.2S73.8,64.3,73.8,67.7"/>
<path class="st0" d="M73.8,24.3c0,3.4-2.8,6.2-6.1,6.2s-6.2-2.8-6.2-6.2s2.8-6.2,6.2-6.2S73.8,20.9,73.8,24.3"/>
<path class="st1" d="M27.2,23.6c0,3.4-2.8,6.2-6.1,6.2c-3.4,0-6.2-2.8-6.2-6.2c0-3.4,2.8-6.2,6.2-6.2C24.4,17.5,27.2,20.2,27.2,23.6
	"/>
<path class="st2" d="M57,12.6c0,7-5.7,12.6-12.6,12.6c-7,0-12.6-5.7-12.6-12.6c0-7,5.7-12.6,12.6-12.6C51.3,0,57,5.7,57,12.6"/>
<path class="st1" d="M90,45.6c0,7-5.7,12.6-12.6,12.6s-12.6-5.7-12.6-12.6S70.4,33,77.4,33S90,38.7,90,45.6"/>
<path class="st2" d="M57,76.1c0,7-5.7,12.6-12.6,12.6c-7,0-12.6-5.7-12.6-12.6s5.7-12.6,12.6-12.6S57,69.1,57,76.1"/>
</svg>
