<svg id="レイヤー_1" data-name="レイヤー 1" xmlns="http://www.w3.org/2000/svg" xmlns:xlink="http://www.w3.org/1999/xlink" viewBox="0 0 473 125.03"><defs><style>.cls-1{fill:#7bc0c4;}.cls-2{fill:#333c8b;}.cls-3{fill:#c84882;}.cls-4{fill:#528bc1;}.cls-5{fill:url(#新規グラデーションスウォッチ_2);}.cls-6{fill:#56b8e9;}.cls-7{fill:none;}</style><linearGradient id="新規グラデーションスウォッチ_2" x1="155.15" y1="202.02" x2="39.7" y2="279.55" gradientUnits="userSpaceOnUse"><stop offset="0" stop-color="#7ccad6"/><stop offset="0.01" stop-color="#7ccad6"/><stop offset="0.35" stop-color="#56b8e9"/><stop offset="0.37" stop-color="#5cb4e5"/><stop offset="0.54" stop-color="#9f89bb"/><stop offset="0.66" stop-color="#c96da0"/><stop offset="0.72" stop-color="#d96396"/><stop offset="0.83" stop-color="#d45b90"/><stop offset="0.98" stop-color="#c84882"/><stop offset="1" stop-color="#c84882"/></linearGradient></defs><title>www</title><path class="cls-1" d="M138.14,194.17A7.18,7.18,0,1,1,131,187a7.18,7.18,0,0,1,7.18,7.18" transform="translate(-12 -186.99)"/><path class="cls-1" d="M136.79,199.52a2.39,2.39,0,1,1-2.39-2.39,2.4,2.4,0,0,1,2.39,2.39" transform="translate(-12 -186.99)"/><path class="cls-2" d="M136.79,209.1a2.39,2.39,0,1,0,2.4-2.4,2.39,2.39,0,0,0-2.4,2.4" transform="translate(-12 -186.99)"/><path class="cls-2" d="M41,280.91a2.39,2.39,0,1,1-2.39-2.39A2.39,2.39,0,0,1,41,280.91" transform="translate(-12 -186.99)"/><path class="cls-1" d="M117.64,295.27a2.39,2.39,0,1,1-2.39-2.4,2.39,2.39,0,0,1,2.39,2.4" transform="translate(-12 -186.99)"/><path class="cls-3" d="M151.15,201.91a4.79,4.79,0,1,1-4.79-4.79,4.79,4.79,0,0,1,4.79,4.79" transform="translate(-12 -186.99)"/><path class="cls-4" d="M141.58,268.94a4.79,4.79,0,1,1-4.79-4.79,4.79,4.79,0,0,1,4.79,4.79" transform="translate(-12 -186.99)"/><path class="cls-3" d="M69.77,307.24A4.79,4.79,0,1,1,65,302.45a4.79,4.79,0,0,1,4.79,4.79" transform="translate(-12 -186.99)"/><path class="cls-4" d="M21.89,249.79A4.79,4.79,0,1,1,17.1,245a4.79,4.79,0,0,1,4.79,4.79" transform="translate(-12 -186.99)"/><path class="cls-5" d="M46.84,259.71h65.27a34.17,34.17,0,0,1-65.27,0m32.64-44.26a34.14,34.14,0,0,1,29.15,16.35H50.33a34.13,34.13,0,0,1,29.15-16.35m20.44-3.53A43.07,43.07,0,0,0,56,213.58c-.15-.25-.3-.5-.43-.77-2.46-4.91-7.05-5.45-10.94-1.56-3.31,3.31-2,8.51,1.75,10.81a42.91,42.91,0,0,0-10.12,27.74c0,.08,0,.16,0,.24A12,12,0,1,0,43,272.9a43.06,43.06,0,0,0,67.55,6.59c2,2.8,4.68,5.9,7.32,7.49,4.71,2.82,11.05,0,11.05-5.53s-3.63-8.37-8.84-6.63a15.93,15.93,0,0,1-6.17.71,43.16,43.16,0,0,0,5.85-40.74,16.75,16.75,0,1,0-19.83-22.87" transform="translate(-12 -186.99)"/><path class="cls-6" d="M239,283.13c-11.56,3.47-23.12-23.51-23.12-23.51s-15.16,25.7-26.72,23.51-46-65.26-18.76-73.36c18.76-8.61,20.43,38.54,28,37,0,0-.9-43.55,22.61-39.57,9,1.54,6.55,22,18.12,38,1.8-9,8.48-33,19.27-29.29C271.59,220.3,268.76,274,239,283.13Z" transform="translate(-12 -186.99)"/><path class="cls-6" d="M348.3,283.13c-11.56,3.47-23.13-23.51-23.13-23.51s-15.16,25.7-26.72,23.51-46-65.26-18.76-73.36c18.76-8.61,20.43,38.54,28,37,0,0-.9-43.55,22.61-39.57,9,1.54,6.55,22,18.11,38,1.8-9,8.48-33,19.27-29.29C380.93,220.3,378.11,274,348.3,283.13Z" transform="translate(-12 -186.99)"/><path class="cls-6" d="M386.7,215.93c10.79-3.73,17.47,20.3,19.27,29.29,11.56-16.06,9.12-36.49,18.11-38,23.51-4,22.61,39.57,22.61,39.57,7.58,1.54,9.25-45.61,28-37,27.23,8.09-7.07,71-18.76,73.36s-26.72-23.51-26.72-23.51-11.56,27-23.12,23.51C376.3,274,373.47,220.3,386.7,215.93Z" transform="translate(-12 -186.99)"/><rect id="_スライス_" data-name="&lt;スライス&gt;" class="cls-7" y="0.01" width="473" height="125"/></svg>